<svg version="1.1" xmlns="http://www.w3.org/2000/svg" width="500" height="500">
<path d="M0 0 C7.40279887 4.76618557 13.2273903 12.06794609 18.91796875 18.69140625 C23.08767161 23.41452505 27.58853185 27.78222288 32.375 31.875 C35.95919613 34.96433671 39.33700407 38.22452929 42.6875 41.5625 C43.16993164 42.04041992 43.65236328 42.51833984 44.14941406 43.01074219 C46.85128065 45.72354013 49.41614438 48.51205344 51.9140625 51.4140625 C56.04309078 56.17745297 60.47079374 60.61763583 64.9375 65.0625 C65.74767578 65.87654297 66.55785156 66.69058594 67.39257812 67.52929688 C68.16666016 68.30208984 68.94074219 69.07488281 69.73828125 69.87109375 C70.78689331 70.91801392 70.78689331 70.91801392 71.85668945 71.98608398 C73.53892168 73.69862678 73.53892168 73.69862678 75.625 74.625 C75.625 75.285 75.625 75.945 75.625 76.625 C76.21885498 76.8936084 76.81270996 77.1622168 77.42456055 77.43896484 C79.63487445 78.63032232 81.07147183 79.82711898 82.83203125 81.6015625 C83.41484863 82.18566895 83.99766602 82.76977539 84.59814453 83.37158203 C85.20513184 83.99145996 85.81211914 84.61133789 86.4375 85.25 C87.06769043 85.88663574 87.69788086 86.52327148 88.34716797 87.17919922 C91.9718577 90.86403418 95.44637059 94.62674006 98.79296875 98.56640625 C104.25895284 104.70835426 110.16338618 110.62231187 116.4375 115.9375 C125.16497665 123.3815242 133.35276957 131.78608706 140.76171875 140.53515625 C143.42548562 143.5228193 146.23746656 146.3528385 149.0625 149.1875 C149.58859863 149.71811035 150.11469727 150.2487207 150.65673828 150.79541016 C153.51597533 153.64410624 156.44329014 156.36378991 159.5 159 C163.92393339 162.83167408 168.06170205 166.91429953 172.1875 171.0625 C172.90357422 171.77470703 173.61964844 172.48691406 174.35742188 173.22070312 C178.42176666 177.29244435 182.3148409 181.45593719 186.0546875 185.828125 C189.80125924 190.1152469 193.8735445 194.01587458 198.203125 197.70703125 C203.328333 202.17320801 208.13037698 206.94642467 212.9375 211.75 C213.83017578 212.63042969 214.72285156 213.51085937 215.64257812 214.41796875 C216.49916016 215.27261719 217.35574219 216.12726563 218.23828125 217.0078125 C219.00954346 217.77496582 219.78080566 218.54211914 220.57543945 219.33251953 C224.39445024 223.60417066 226.05509288 226.80716436 226.0625 232.5625 C226.08183594 233.56152344 226.10117187 234.56054688 226.12109375 235.58984375 C225.05400769 242.11839387 219.92307301 246.61486281 215.390625 251.08984375 C214.79376892 251.68624161 214.19691284 252.28263947 213.58197021 252.89710999 C212.32361815 254.15245522 211.06285085 255.40538363 209.79980469 256.65600586 C207.88943849 258.54819886 205.98711343 260.4481873 204.0859375 262.34960938 C198.60423857 267.81454938 193.11840747 273.1935639 187.22314453 278.21606445 C184.76162023 280.38616172 182.61509049 282.79894466 180.4375 285.25 C174.76926549 291.51860232 168.84637921 297.5208205 162.875 303.5 C161.9878833 304.39154785 161.1007666 305.2830957 160.18676758 306.20166016 C156.34547427 310.03468489 152.49578071 313.79863495 148.37890625 317.3359375 C144.74523225 320.45846921 141.52232647 323.82445472 138.3125 327.375 C132.59351403 333.59593096 126.72077276 339.64549208 120.75 345.625 C119.96584717 346.41358398 119.18169434 347.20216797 118.3737793 348.01464844 C114.83619232 351.54361172 111.2727466 354.9793024 107.48046875 358.234375 C103.63894217 361.54393944 100.22467679 365.1306517 96.8125 368.875 C90.89513085 375.27271222 84.84519367 381.5207695 78.6875 387.6875 C77.51707153 388.8645752 77.51707153 388.8645752 76.32299805 390.06542969 C72.8061513 393.57364475 69.26256657 396.98715017 65.4921875 400.22265625 C61.60284972 403.57361085 58.14450321 407.21093309 54.6875 411 C49.12859813 417.00645563 43.46980793 422.89561343 37.6875 428.6875 C37.00244385 429.3769873 36.3173877 430.06647461 35.61157227 430.77685547 C32.37688804 434.00252069 29.10147095 437.11305626 25.62890625 440.08203125 C21.26333964 443.84887329 17.39325061 448.00418141 13.5 452.25 C0.74559687 466.14622589 0.74559687 466.14622589 -5.42578125 466.86328125 C-10.93780683 467.04415946 -14.07556765 466.41259517 -18.375 462.625 C-21.79602385 458.74783964 -21.83925561 454.94907865 -21.6484375 449.98046875 C-21.0839364 445.11769497 -18.71666176 442.86217484 -15.1328125 439.85546875 C-9.19142067 434.69665077 -3.68968591 429.08886585 1.86181641 423.51855469 C3.74920763 421.62579462 5.64189673 419.73845071 7.53515625 417.8515625 C8.75552914 416.63052888 9.97559182 415.40918513 11.1953125 414.1875 C12.02991501 413.35593384 12.02991501 413.35593384 12.88137817 412.50756836 C15.64382295 409.72882644 18.27937138 406.89956989 20.80883789 403.90600586 C22.78014299 401.57384444 24.73423113 399.49448162 27.11328125 397.56640625 C33.02725251 392.52722455 38.43570904 386.96317186 43.91674805 381.46362305 C45.81512055 379.55987203 47.71880374 377.66154876 49.62304688 375.76367188 C50.84667506 374.53938314 52.06999315 373.31478437 53.29296875 372.08984375 C54.13531319 371.25053566 54.13531319 371.25053566 54.99467468 370.39427185 C57.55628426 367.8175521 60.00702787 365.219299 62.30859375 362.40625 C64.14721069 360.19866946 65.81145983 358.45504017 68.01953125 356.66015625 C74.1136605 351.45561827 79.69014827 345.70861391 85.34399414 340.03637695 C87.31479488 338.06019886 89.29090656 336.08944452 91.26757812 334.11914062 C92.53677922 332.84927897 93.80567021 331.57910728 95.07421875 330.30859375 C95.65765549 329.72718124 96.24109222 329.14576874 96.84220886 328.54673767 C99.45849103 325.91558014 101.96974515 323.26770585 104.32006836 320.39477539 C106.16258836 318.18066783 107.84137525 316.42791793 110.0546875 314.625 C115.96462754 309.57756177 121.37908395 304.01986299 126.86181641 298.51855469 C128.74920763 296.62579462 130.64189673 294.73845071 132.53515625 292.8515625 C133.75552914 291.63052888 134.97559182 290.40918513 136.1953125 289.1875 C137.02991501 288.35593384 137.02991501 288.35593384 137.88137817 287.50756836 C140.64382295 284.72882644 143.27937138 281.89956989 145.80883789 278.90600586 C147.78014299 276.57384444 149.73423113 274.49448162 152.11328125 272.56640625 C158.02725251 267.52722455 163.43570904 261.96317186 168.91674805 256.46362305 C170.81512055 254.55987203 172.71880374 252.66154876 174.62304688 250.76367188 C175.84667506 249.53938314 177.06999315 248.31478437 178.29296875 247.08984375 C179.13531319 246.25053566 179.13531319 246.25053566 179.99467468 245.39427185 C182.59340222 242.78021519 185.06683179 240.14233702 187.39575195 237.28344727 C189.625 234.625 189.625 234.625 191.625 233.625 C191.625 232.965 191.625 232.305 191.625 231.625 C190.21130901 230.45267089 188.79389586 229.28462334 187.36108398 228.13574219 C185.63539752 226.63404793 184.24616734 225.08591538 182.78515625 223.328125 C177.66094322 217.39468314 172.0683561 211.91924542 166.51855469 206.38818359 C164.62579462 204.50079237 162.73845071 202.60810327 160.8515625 200.71484375 C159.63052888 199.49447086 158.40918513 198.27440818 157.1875 197.0546875 C156.35593384 196.22008499 156.35593384 196.22008499 155.50756836 195.36862183 C152.72882644 192.60617705 149.89956989 189.97062862 146.90600586 187.44116211 C144.57384444 185.46985701 142.49448162 183.51576887 140.56640625 181.13671875 C135.52722455 175.22274749 129.96317186 169.81429096 124.46362305 164.33325195 C122.55987203 162.43487945 120.66154876 160.53119626 118.76367188 158.62695312 C117.53938314 157.40332494 116.31478437 156.18000685 115.08984375 154.95703125 C114.25053566 154.11468681 114.25053566 154.11468681 113.39427185 153.25532532 C110.8175521 150.69371574 108.219299 148.24297213 105.40625 145.94140625 C103.19866946 144.10278931 101.45504017 142.43854017 99.66015625 140.23046875 C94.45561827 134.1363395 88.70861391 128.55985173 83.03637695 122.90600586 C81.06019886 120.93520512 79.08944452 118.95909344 77.11914062 116.98242188 C75.84927897 115.71322078 74.57910728 114.44432979 73.30859375 113.17578125 C72.72718124 112.59234451 72.14576874 112.00890778 71.54673767 111.40779114 C68.91558014 108.79150897 66.26770585 106.28025485 63.39477539 103.92993164 C61.18066783 102.08741164 59.42791793 100.40862475 57.625 98.1953125 C52.57756177 92.28537246 47.01986299 86.87091605 41.51855469 81.38818359 C39.62579462 79.50079237 37.73845071 77.60810327 35.8515625 75.71484375 C34.63052888 74.49447086 33.40918513 73.27440818 32.1875 72.0546875 C31.63312256 71.49828583 31.07874512 70.94188416 30.50756836 70.36862183 C27.72868902 67.60604044 24.89928873 64.97044096 21.90551758 62.44091797 C19.57509035 60.47110654 17.49909828 58.51934936 15.57421875 56.140625 C9.92900016 49.51328657 3.60956051 43.50538396 -2.5625 37.375 C-3.8459374 36.09658932 -5.12914234 34.81794522 -6.41210938 33.5390625 C-8.7605318 31.19875157 -11.11025269 28.85976275 -13.46166992 26.52246094 C-13.96354828 26.0222644 -14.46542664 25.52206787 -14.98251343 25.00671387 C-16.21536989 23.78339516 -17.45907704 22.57103306 -18.7043457 21.36035156 C-21.99340324 17.94392295 -21.71144132 14.71848146 -21.65234375 10.16796875 C-21.24075288 6.39408627 -19.93298217 4.38492813 -17.375 1.625 C-11.65549321 -2.27466372 -6.2449343 -2.54423249 0 0 Z " fill="#14ff72cb" transform="translate(149.375,17.375)"/>
<path d="M0 0 C0 0.99 0 1.98 0 3 C-1.46701757 4.24377577 -2.94014929 5.48518173 -4.4921875 6.62109375 C-6.11254025 7.92995713 -6.11254025 7.92995713 -6.90942383 9.90283203 C-8.04508466 12.08669738 -9.13862533 13.2961653 -10.95703125 14.93359375 C-11.56506592 15.49006592 -12.17310059 16.04653809 -12.79956055 16.61987305 C-13.46383057 17.21968994 -14.12810059 17.81950684 -14.8125 18.4375 C-22.73958554 25.71483956 -30.34835387 33.28136704 -37.90356445 40.94116211 C-38.75394287 41.7997583 -39.60432129 42.65835449 -40.48046875 43.54296875 C-41.23223389 44.30633545 -41.98399902 45.06970215 -42.75854492 45.85620117 C-45 48 -45 48 -47.63793945 50.10668945 C-50.19594119 52.15705673 -52.0384363 54.38458173 -54 57 C-54.66 56.67 -55.32 56.34 -56 56 C-54.84032094 54.63984451 -53.6717523 53.28726851 -52.5 51.9375 C-51.8503125 51.18339844 -51.200625 50.42929687 -50.53125 49.65234375 C-48.59994711 47.62864828 -46.7210651 45.86897388 -44.6015625 44.06640625 C-38.69996722 38.97714011 -33.26106787 33.41006615 -27.76318359 27.89355469 C-25.87579237 26.00079462 -23.98310327 24.11345071 -22.08984375 22.2265625 C-20.86947086 21.00552888 -19.64940818 19.78418513 -18.4296875 18.5625 C-17.87328583 18.00812256 -17.31688416 17.45374512 -16.74362183 16.88256836 C-13.46123295 13.5808149 -10.38190094 10.1770697 -7.41604614 6.58740234 C-5.17745273 4.07791602 -2.64078125 2.07489955 0 0 Z " fill="#AFAFAF" transform="translate(304,288)"/>
<path d="M0 0 C0.33 0.99 0.66 1.98 1 3 C-3.47352044 7.59589638 -8.08064098 11.88380164 -13 16 C-13.66 15.67 -14.32 15.34 -15 15 C-13.06629992 12.87143092 -11.12827941 10.7470979 -9.1875 8.625 C-8.64029297 8.02171875 -8.09308594 7.4184375 -7.52929688 6.796875 C-6.99755859 6.21679688 -6.46582031 5.63671875 -5.91796875 5.0390625 C-5.43094482 4.50490723 -4.9439209 3.97075195 -4.44213867 3.42041016 C-3 2 -3 2 0 0 Z " fill="#919191" transform="translate(176,416)"/>
<path d="M0 0 C0.66 0.33 1.32 0.66 2 1 C0.88121617 2.17262904 -0.24523051 3.33795138 -1.375 4.5 C-2.00148438 5.1496875 -2.62796875 5.799375 -3.2734375 6.46875 C-5 8 -5 8 -7 8 C-5.50902342 4.2047869 -3.24299151 2.38957269 0 0 Z " fill="#535353" transform="translate(296,297)"/>
</svg>